<mxfile host="app.diagrams.net" modified="2022-11-09T16:30:49.595Z" agent="5.0 (Windows NT 10.0; Win64; x64) AppleWebKit/537.36 (KHTML, like Gecko) Chrome/107.0.0.0 Safari/537.36" etag="7E-vYmycjhP_I5V5RJ4j" version="20.5.1" type="github">
  <diagram id="cxQXUJOjFM9MWGc5VxRs" name="Page-1">
    <mxGraphModel dx="4642" dy="1065" grid="1" gridSize="10" guides="1" tooltips="1" connect="1" arrows="1" fold="1" page="1" pageScale="1" pageWidth="850" pageHeight="1100" math="0" shadow="0">
      <root>
        <mxCell id="0" />
        <mxCell id="1" parent="0" />
        <mxCell id="zWNQEBqrM8jFGuJcQPr2-2" value="" style="endArrow=classic;html=1;rounded=0;exitX=0.5;exitY=1;exitDx=0;exitDy=0;" parent="1" target="zWNQEBqrM8jFGuJcQPr2-3" edge="1">
          <mxGeometry width="50" height="50" relative="1" as="geometry">
            <mxPoint x="-890" y="310" as="sourcePoint" />
            <mxPoint x="-890" y="400" as="targetPoint" />
          </mxGeometry>
        </mxCell>
        <mxCell id="zWNQEBqrM8jFGuJcQPr2-34" style="edgeStyle=orthogonalEdgeStyle;rounded=0;orthogonalLoop=1;jettySize=auto;html=1;exitX=0.5;exitY=1;exitDx=0;exitDy=0;entryX=0.5;entryY=0;entryDx=0;entryDy=0;" parent="1" source="zWNQEBqrM8jFGuJcQPr2-3" target="zWNQEBqrM8jFGuJcQPr2-13" edge="1">
          <mxGeometry relative="1" as="geometry" />
        </mxCell>
        <mxCell id="zWNQEBqrM8jFGuJcQPr2-3" value="Verify Members identity /attribute" style="rounded=0;whiteSpace=wrap;html=1;" parent="1" vertex="1">
          <mxGeometry x="-950" y="370" width="120" height="60" as="geometry" />
        </mxCell>
        <mxCell id="zWNQEBqrM8jFGuJcQPr2-10" value="" style="endArrow=classic;html=1;rounded=0;exitX=0.5;exitY=1;exitDx=0;exitDy=0;" parent="1" edge="1">
          <mxGeometry width="50" height="50" relative="1" as="geometry">
            <mxPoint x="-890.5" y="600" as="sourcePoint" />
            <mxPoint x="-890.5" y="680" as="targetPoint" />
          </mxGeometry>
        </mxCell>
        <mxCell id="zWNQEBqrM8jFGuJcQPr2-40" style="edgeStyle=orthogonalEdgeStyle;rounded=0;orthogonalLoop=1;jettySize=auto;html=1;exitX=1;exitY=0.5;exitDx=0;exitDy=0;" parent="1" source="zWNQEBqrM8jFGuJcQPr2-13" edge="1">
          <mxGeometry relative="1" as="geometry">
            <mxPoint x="-740" y="565" as="targetPoint" />
          </mxGeometry>
        </mxCell>
        <mxCell id="zWNQEBqrM8jFGuJcQPr2-13" value="Is user account active&amp;nbsp;&amp;nbsp;" style="rhombus;whiteSpace=wrap;html=1;" parent="1" vertex="1">
          <mxGeometry x="-950" y="510" width="120" height="110" as="geometry" />
        </mxCell>
        <mxCell id="zWNQEBqrM8jFGuJcQPr2-15" value="Start Group/Access Review" style="rounded=1;whiteSpace=wrap;html=1;" parent="1" vertex="1">
          <mxGeometry x="-950" y="260" width="120" height="60" as="geometry" />
        </mxCell>
        <mxCell id="zWNQEBqrM8jFGuJcQPr2-24" style="edgeStyle=orthogonalEdgeStyle;rounded=0;orthogonalLoop=1;jettySize=auto;html=1;exitX=0.5;exitY=1;exitDx=0;exitDy=0;" parent="1" source="zWNQEBqrM8jFGuJcQPr2-18" edge="1">
          <mxGeometry relative="1" as="geometry">
            <mxPoint x="-890" y="820" as="targetPoint" />
          </mxGeometry>
        </mxCell>
        <mxCell id="zWNQEBqrM8jFGuJcQPr2-28" style="edgeStyle=orthogonalEdgeStyle;rounded=0;orthogonalLoop=1;jettySize=auto;html=1;exitX=1;exitY=0.5;exitDx=0;exitDy=0;" parent="1" source="zWNQEBqrM8jFGuJcQPr2-18" edge="1">
          <mxGeometry relative="1" as="geometry">
            <mxPoint x="-680" y="720" as="targetPoint" />
          </mxGeometry>
        </mxCell>
        <mxCell id="zWNQEBqrM8jFGuJcQPr2-18" value="Manager approves Access" style="rhombus;whiteSpace=wrap;html=1;" parent="1" vertex="1">
          <mxGeometry x="-952.5" y="680" width="125" height="80" as="geometry" />
        </mxCell>
        <mxCell id="zWNQEBqrM8jFGuJcQPr2-21" value="No ?&lt;br&gt;" style="text;html=1;align=center;verticalAlign=middle;resizable=0;points=[];autosize=1;strokeColor=none;fillColor=none;" parent="1" vertex="1">
          <mxGeometry x="-815" y="575" width="50" height="30" as="geometry" />
        </mxCell>
        <mxCell id="zWNQEBqrM8jFGuJcQPr2-41" style="edgeStyle=orthogonalEdgeStyle;rounded=0;orthogonalLoop=1;jettySize=auto;html=1;exitX=1;exitY=0.5;exitDx=0;exitDy=0;" parent="1" source="zWNQEBqrM8jFGuJcQPr2-22" edge="1">
          <mxGeometry relative="1" as="geometry">
            <mxPoint x="-540" y="565" as="targetPoint" />
          </mxGeometry>
        </mxCell>
        <mxCell id="zWNQEBqrM8jFGuJcQPr2-22" value="Remove Access" style="rounded=1;whiteSpace=wrap;html=1;" parent="1" vertex="1">
          <mxGeometry x="-735" y="535" width="105" height="60" as="geometry" />
        </mxCell>
        <mxCell id="zWNQEBqrM8jFGuJcQPr2-25" value="Yes ?&lt;br&gt;" style="text;html=1;align=center;verticalAlign=middle;resizable=0;points=[];autosize=1;strokeColor=none;fillColor=none;" parent="1" vertex="1">
          <mxGeometry x="-935" y="775" width="50" height="30" as="geometry" />
        </mxCell>
        <mxCell id="zWNQEBqrM8jFGuJcQPr2-27" style="edgeStyle=orthogonalEdgeStyle;rounded=0;orthogonalLoop=1;jettySize=auto;html=1;exitX=0.5;exitY=1;exitDx=0;exitDy=0;" parent="1" source="zWNQEBqrM8jFGuJcQPr2-26" edge="1">
          <mxGeometry relative="1" as="geometry">
            <mxPoint x="-890" y="990" as="targetPoint" />
          </mxGeometry>
        </mxCell>
        <mxCell id="zWNQEBqrM8jFGuJcQPr2-30" style="edgeStyle=orthogonalEdgeStyle;rounded=0;orthogonalLoop=1;jettySize=auto;html=1;exitX=1;exitY=0.5;exitDx=0;exitDy=0;entryX=0.352;entryY=1.05;entryDx=0;entryDy=0;entryPerimeter=0;" parent="1" source="zWNQEBqrM8jFGuJcQPr2-26" edge="1" target="a_KO3RTqlulLCPnJH5K2-2">
          <mxGeometry relative="1" as="geometry">
            <mxPoint x="-720" y="720" as="targetPoint" />
          </mxGeometry>
        </mxCell>
        <mxCell id="zWNQEBqrM8jFGuJcQPr2-26" value="Resource owner approval" style="rhombus;whiteSpace=wrap;html=1;" parent="1" vertex="1">
          <mxGeometry x="-970" y="820" width="160" height="100" as="geometry" />
        </mxCell>
        <mxCell id="zWNQEBqrM8jFGuJcQPr2-29" value="&lt;span style=&quot;color: rgba(0, 0, 0, 0); font-family: monospace; font-size: 0px; text-align: start;&quot;&gt;%3CmxGraphModel%3E%3Croot%3E%3CmxCell%20id%3D%220%22%2F%3E%3CmxCell%20id%3D%221%22%20parent%3D%220%22%2F%3E%3CmxCell%20id%3D%222%22%20value%3D%22No%20%3F%26lt%3Bbr%26gt%3B%22%20style%3D%22text%3Bhtml%3D1%3Balign%3Dcenter%3BverticalAlign%3Dmiddle%3Bresizable%3D0%3Bpoints%3D%5B%5D%3Bautosize%3D1%3BstrokeColor%3Dnone%3BfillColor%3Dnone%3B%22%20vertex%3D%221%22%20parent%3D%221%22%3E%3CmxGeometry%20x%3D%22-815%22%20y%3D%22575%22%20width%3D%2250%22%20height%3D%2230%22%20as%3D%22geometry%22%2F%3E%3C%2FmxCell%3E%3C%2Froot%3E%3C%2FmxGraphModel%3E&lt;/span&gt;" style="text;html=1;align=center;verticalAlign=middle;resizable=0;points=[];autosize=1;strokeColor=none;fillColor=none;" parent="1" vertex="1">
          <mxGeometry x="-760" y="725" width="20" height="30" as="geometry" />
        </mxCell>
        <mxCell id="zWNQEBqrM8jFGuJcQPr2-32" value="Yes ?&lt;br&gt;" style="text;html=1;align=center;verticalAlign=middle;resizable=0;points=[];autosize=1;strokeColor=none;fillColor=none;" parent="1" vertex="1">
          <mxGeometry x="-935" y="935" width="50" height="30" as="geometry" />
        </mxCell>
        <mxCell id="zWNQEBqrM8jFGuJcQPr2-35" value="Yes ?&lt;br&gt;&lt;br&gt;" style="text;html=1;align=center;verticalAlign=middle;resizable=0;points=[];autosize=1;strokeColor=none;fillColor=none;" parent="1" vertex="1">
          <mxGeometry x="-945" y="620" width="50" height="40" as="geometry" />
        </mxCell>
        <mxCell id="zWNQEBqrM8jFGuJcQPr2-43" value="Notify Manager&lt;br&gt;" style="rounded=0;whiteSpace=wrap;html=1;" parent="1" vertex="1">
          <mxGeometry x="-545" y="540" width="120" height="60" as="geometry" />
        </mxCell>
        <mxCell id="zWNQEBqrM8jFGuJcQPr2-48" value="Retain Access" style="rounded=1;whiteSpace=wrap;html=1;" parent="1" vertex="1">
          <mxGeometry x="-950" y="990" width="105" height="60" as="geometry" />
        </mxCell>
        <mxCell id="a_KO3RTqlulLCPnJH5K2-2" value="Remove Access" style="rounded=1;whiteSpace=wrap;html=1;" vertex="1" parent="1">
          <mxGeometry x="-670" y="690" width="105" height="60" as="geometry" />
        </mxCell>
        <mxCell id="a_KO3RTqlulLCPnJH5K2-3" value="" style="endArrow=classic;html=1;rounded=0;exitX=1;exitY=0.5;exitDx=0;exitDy=0;entryX=0;entryY=0.5;entryDx=0;entryDy=0;" edge="1" parent="1" source="a_KO3RTqlulLCPnJH5K2-2" target="a_KO3RTqlulLCPnJH5K2-4">
          <mxGeometry width="50" height="50" relative="1" as="geometry">
            <mxPoint x="-880" y="660" as="sourcePoint" />
            <mxPoint x="-601" y="910" as="targetPoint" />
          </mxGeometry>
        </mxCell>
        <mxCell id="a_KO3RTqlulLCPnJH5K2-19" style="edgeStyle=orthogonalEdgeStyle;rounded=0;orthogonalLoop=1;jettySize=auto;html=1;exitX=1;exitY=0.5;exitDx=0;exitDy=0;" edge="1" parent="1" source="a_KO3RTqlulLCPnJH5K2-4">
          <mxGeometry relative="1" as="geometry">
            <mxPoint x="-290" y="720" as="targetPoint" />
          </mxGeometry>
        </mxCell>
        <mxCell id="a_KO3RTqlulLCPnJH5K2-4" value="Notify User" style="rounded=0;whiteSpace=wrap;html=1;" vertex="1" parent="1">
          <mxGeometry x="-480" y="690" width="120" height="60" as="geometry" />
        </mxCell>
        <mxCell id="a_KO3RTqlulLCPnJH5K2-9" value="" style="endArrow=classic;html=1;rounded=0;entryX=0;entryY=0.5;entryDx=0;entryDy=0;exitX=1;exitY=0.5;exitDx=0;exitDy=0;" edge="1" parent="1" source="zWNQEBqrM8jFGuJcQPr2-48" target="a_KO3RTqlulLCPnJH5K2-13">
          <mxGeometry width="50" height="50" relative="1" as="geometry">
            <mxPoint x="-830" y="1040" as="sourcePoint" />
            <mxPoint x="-280" y="1010" as="targetPoint" />
          </mxGeometry>
        </mxCell>
        <mxCell id="a_KO3RTqlulLCPnJH5K2-10" value="No ?&lt;br&gt;" style="text;html=1;align=center;verticalAlign=middle;resizable=0;points=[];autosize=1;strokeColor=none;fillColor=none;" vertex="1" parent="1">
          <mxGeometry x="-765" y="725" width="50" height="30" as="geometry" />
        </mxCell>
        <mxCell id="a_KO3RTqlulLCPnJH5K2-11" value="No ?&lt;br&gt;" style="text;html=1;align=center;verticalAlign=middle;resizable=0;points=[];autosize=1;strokeColor=none;fillColor=none;" vertex="1" parent="1">
          <mxGeometry x="-760" y="870" width="50" height="30" as="geometry" />
        </mxCell>
        <mxCell id="a_KO3RTqlulLCPnJH5K2-13" value="Update group info &#39;Reviewed by Security and IAM tean -date&lt;br&gt;&#39;" style="rounded=0;whiteSpace=wrap;html=1;" vertex="1" parent="1">
          <mxGeometry x="-350" y="990" width="120" height="60" as="geometry" />
        </mxCell>
        <mxCell id="a_KO3RTqlulLCPnJH5K2-14" value="" style="endArrow=classic;html=1;rounded=0;entryX=0.5;entryY=0;entryDx=0;entryDy=0;" edge="1" parent="1" target="a_KO3RTqlulLCPnJH5K2-13">
          <mxGeometry width="50" height="50" relative="1" as="geometry">
            <mxPoint x="-290" y="560" as="sourcePoint" />
            <mxPoint x="-270" y="570" as="targetPoint" />
          </mxGeometry>
        </mxCell>
        <mxCell id="a_KO3RTqlulLCPnJH5K2-15" value="" style="endArrow=classic;html=1;rounded=0;" edge="1" parent="1">
          <mxGeometry width="50" height="50" relative="1" as="geometry">
            <mxPoint x="-880" y="800" as="sourcePoint" />
            <mxPoint x="-830" y="750" as="targetPoint" />
          </mxGeometry>
        </mxCell>
        <mxCell id="a_KO3RTqlulLCPnJH5K2-16" value="" style="endArrow=none;html=1;rounded=0;" edge="1" parent="1">
          <mxGeometry width="50" height="50" relative="1" as="geometry">
            <mxPoint x="-880" y="800" as="sourcePoint" />
            <mxPoint x="-830" y="750" as="targetPoint" />
          </mxGeometry>
        </mxCell>
        <mxCell id="a_KO3RTqlulLCPnJH5K2-17" value="" style="endArrow=none;html=1;rounded=0;exitX=0.992;exitY=0.383;exitDx=0;exitDy=0;exitPerimeter=0;" edge="1" parent="1" source="zWNQEBqrM8jFGuJcQPr2-43">
          <mxGeometry width="50" height="50" relative="1" as="geometry">
            <mxPoint x="-420" y="620" as="sourcePoint" />
            <mxPoint x="-290" y="563" as="targetPoint" />
          </mxGeometry>
        </mxCell>
        <mxCell id="a_KO3RTqlulLCPnJH5K2-18" value="" style="endArrow=none;html=1;rounded=0;" edge="1" parent="1">
          <mxGeometry width="50" height="50" relative="1" as="geometry">
            <mxPoint x="-880" y="800" as="sourcePoint" />
            <mxPoint x="-830" y="750" as="targetPoint" />
          </mxGeometry>
        </mxCell>
      </root>
    </mxGraphModel>
  </diagram>
</mxfile>
